<svg width="24" height="24" viewBox="0 0 24 24" fill="none" xmlns="http://www.w3.org/2000/svg">
<path fill-rule="evenodd" clip-rule="evenodd" d="M18.2703 2.25014C19.2201 2.21028 20.1202 2.56004 20.7801 3.21987C21.4401 3.87987 21.7898 4.80061 21.7498 5.73061C21.7097 6.66049 21.2695 7.54009 20.5496 8.13002L7.15022 19.4103C7.33014 20.0301 7.18 20.7201 6.69026 21.2101C6.33026 21.5701 5.85971 21.7501 5.37971 21.7501C4.89978 21.7501 4.4301 21.57 4.07014 21.2101L2.78987 19.9298C2.0701 19.2098 2.06999 18.0404 2.78987 17.3205C3.27984 16.8305 3.96969 16.6808 4.58967 16.8507L15.8699 3.45034C16.4599 2.73035 17.3403 2.29014 18.2703 2.25014ZM4.11018 18.2804C4.02031 18.2804 3.93013 18.3102 3.86018 18.38C3.72018 18.51 3.72018 18.7303 3.86018 18.8703L5.13948 20.1505C5.26942 20.2905 5.4897 20.2903 5.62971 20.1505H5.63948C5.77948 20.0205 5.77948 19.8003 5.63948 19.6603L4.36018 18.38C4.29027 18.3101 4.20006 18.2805 4.11018 18.2804ZM5.82014 17.7306L6.2801 18.1906L9.45979 15.5099L8.49983 14.5499L5.82014 17.7306ZM18.3494 3.75014C17.8296 3.78023 17.36 4.01046 17.0301 4.4103L9.46955 13.4005L10.6102 14.5402L19.5897 6.98061L19.5799 6.96987C19.9897 6.63993 20.2298 6.17034 20.2498 5.65053C20.2798 5.14053 20.0896 4.65041 19.7196 4.28041C19.3596 3.91046 18.8794 3.72014 18.3494 3.75014Z" fill="currentColor"/>
<path fill-rule="evenodd" clip-rule="evenodd" d="M6.50959 2.25014C8.29954 2.25014 9.75951 3.71021 9.75959 5.50014C9.75959 7.29014 8.29959 8.75014 6.50959 8.75014C4.71971 8.75 3.25959 7.29005 3.25959 5.50014C3.25968 3.7103 4.71977 2.25028 6.50959 2.25014ZM6.50959 3.75014C5.54977 3.75029 4.75968 4.5403 4.75959 5.50014C4.75959 6.46005 5.54971 7.24999 6.50959 7.25014C7.46959 7.25014 8.25959 6.46014 8.25959 5.50014C8.25951 4.54021 7.46954 3.75014 6.50959 3.75014Z" fill="currentColor"/>
</svg>
