<svg width="24" height="24" viewBox="0 0 24 24" fill="none" xmlns="http://www.w3.org/2000/svg">
<path d="M12.0957 6C13.1257 6.026 14.0961 6.44187 14.8281 7.17188C15.5851 7.92887 16.001 8.933 16.001 10V15.3887C16.001 18.1347 14.8416 20.3021 12.5566 21.8301C12.3857 21.943 12.1929 21.998 12.002 21.998C11.679 21.998 11.3619 21.8427 11.1699 21.5537C10.8621 21.0947 10.9864 20.474 11.4453 20.167C13.1892 19.002 14.001 17.4836 14.001 15.3887V9.99902C14.001 9.46602 13.7931 8.96394 13.4141 8.58594C13.0991 8.27101 12.6777 8.06831 12.2363 8.01367L11.9443 7.99121C11.4416 7.92829 11.0593 7.49303 11.0713 6.97559C11.0843 6.42366 11.5098 5.98513 12.0957 6Z" fill="currentColor"/>
<path d="M17.126 5.14746C17.575 4.82446 18.1995 4.927 18.5225 5.375C19.4894 6.71995 20 8.3191 20 10V16C20 17.238 19.8783 19.0602 18.8193 20.5732C18.6253 20.8512 18.314 21 17.999 21C17.801 21 17.6018 20.9413 17.4268 20.8193C16.9748 20.5033 16.8647 19.8788 17.1807 19.4258C17.7466 18.6148 18 17.559 18 15.999V9.99902C18 8.74012 17.6193 7.54492 16.8984 6.54297C16.5755 6.09505 16.6772 5.47051 17.126 5.14746Z" fill="currentColor"/>
<path d="M8.17969 8.81445C8.35369 8.29045 8.92331 8.00466 9.44531 8.18066C9.97022 8.35472 10.2531 8.92134 10.0781 9.44629C10.0262 9.60126 9.99902 9.79207 9.99902 10V13.9297C9.99902 15.2437 9.55972 16.5391 8.76172 17.5791C8.56572 17.835 8.26873 17.9697 7.96777 17.9697C7.75687 17.9697 7.54325 17.9016 7.36133 17.7627C6.92242 17.4268 6.83902 16.7993 7.17578 16.3613C7.70578 15.6693 7.99902 14.8047 7.99902 13.9297V10C7.99902 9.5742 8.0598 9.17532 8.17969 8.81445Z" fill="currentColor"/>
<path d="M12 2C12.29 2 12.5801 2.01188 12.8701 2.04688C13.4191 2.11388 13.8092 2.61116 13.7432 3.16016C13.6771 3.70904 13.1848 4.09918 12.6299 4.0332C12.4199 4.0072 12.21 4 12 4C8.691 4 6 6.691 6 10V16C6 16.552 5.553 17 5 17C4.447 17 4 16.552 4 16V10C4 5.589 7.589 2 12 2Z" fill="currentColor"/>
<path d="M12 10C12.553 10 13 10.448 13 11V15C13 15.552 12.553 16 12 16C11.447 16 11 15.552 11 15V11C11 10.448 11.447 10 12 10Z" fill="currentColor"/>
</svg>
