<svg width="24" height="24" viewBox="0 0 24 24" fill="none" xmlns="http://www.w3.org/2000/svg">
<path fill-rule="evenodd" clip-rule="evenodd" d="M17.625 3C19.875 3 21 4.125 21 6.375V17.625C21 19.875 19.875 21 17.625 21H6.375C4.125 21 3 19.875 3 17.625V6.375C3 4.125 4.125 3 6.375 3H17.625ZM8 13.75C7.586 13.75 7.25 14.086 7.25 14.5C7.25 14.914 7.586 15.25 8 15.25H13C13.414 15.25 13.75 14.914 13.75 14.5C13.75 14.086 13.414 13.75 13 13.75H8ZM8 8.75C7.586 8.75 7.25 9.086 7.25 9.5C7.25 9.914 7.586 10.25 8 10.25H16C16.414 10.25 16.75 9.914 16.75 9.5C16.75 9.086 16.414 8.75 16 8.75H8Z" fill="currentColor"/>
</svg>
